<?xml version="1.0" encoding="utf-8"?>
<!-- Generator: Adobe Illustrator 16.0.0, SVG Export Plug-In . SVG Version: 6.00 Build 0)  -->
<!DOCTYPE svg PUBLIC "-//W3C//DTD SVG 1.1//EN" "http://www.w3.org/Graphics/SVG/1.1/DTD/svg11.dtd">
<svg version="1.1" id="Layer_1" xmlns="http://www.w3.org/2000/svg" xmlns:xlink="http://www.w3.org/1999/xlink" x="0px" y="0px"
	 width="341px" height="341px" viewBox="-65.5 -42.5 341 341" enable-background="new -65.5 -42.5 341 341" xml:space="preserve">
<circle  cx="105" cy="128" r="170.5"/>
<g>
	<path fill="#F9F9F9" d="M18.222,126.109l45.853-52.674c3.41-3.789,3.032-9.474-0.759-12.885c-3.789-3.41-9.473-3.031-12.884,0.759
		l-51.157,58.736c-3.032,3.411-3.032,8.716,0,12.127l51.157,58.736c1.896,1.895,4.169,3.031,6.821,3.031
		c2.273,0,4.547-0.758,6.062-2.273c1.896-1.516,3.032-3.79,3.032-6.442c0-2.273-0.758-4.926-2.273-6.82L18.222,126.109z"/>
	<path fill="#F9F9F9" d="M159.569,61.31c-1.516-1.896-3.791-3.032-6.443-3.032c-2.273,0-4.926,0.759-6.82,2.273
		c-3.789,3.411-4.168,9.096-0.758,12.885l46.231,52.674l-45.853,52.674c-1.516,1.895-2.273,4.168-2.273,6.821
		c0,2.273,1.137,4.548,3.031,6.442c1.516,1.516,3.789,2.273,6.062,2.273c2.652,0,5.306-1.137,6.821-3.031l51.158-58.737
		c3.031-3.41,3.031-8.716,0-12.126L159.569,61.31z"/>
	<path fill="#F9F9F9" d="M121.295,43.878c-4.927-1.137-9.853,2.273-10.989,7.2l-29.18,146.273c-1.137,4.926,2.273,9.852,7.2,10.989
		c0.759,0,1.137,0,1.896,0c4.547,0,8.336-3.031,9.094-7.579l29.18-146.273C129.632,49.562,126.601,45.015,121.295,43.878z"/>
</g>
</svg>
