<?xml version="1.0" encoding="utf-8"?>
<!-- Generator: Adobe Illustrator 16.0.0, SVG Export Plug-In . SVG Version: 6.00 Build 0)  -->
<!DOCTYPE svg PUBLIC "-//W3C//DTD SVG 1.1//EN" "http://www.w3.org/Graphics/SVG/1.1/DTD/svg11.dtd">
<svg version="1.1" id="Layer_1" xmlns="http://www.w3.org/2000/svg" xmlns:xlink="http://www.w3.org/1999/xlink" x="0px" y="0px"
	 width="711px" height="711px" viewBox="0 0 711 711" enable-background="new 0 0 711 711" xml:space="preserve">
<title>Artboard 9</title>
<path  d="M224.459,332.853l-90.08-90.033c-6.292-6.286-6.297-16.482-0.012-22.775
	c0.004-0.004,0.008-0.008,0.012-0.012l82.654-82.654c6.285-6.292,16.482-6.298,22.773-0.012c0.004,0.004,0.008,0.008,0.013,0.012
	l90.032,90.033c1.514,1.496,1.526,3.935,0.028,5.447c-0.009,0.01-0.018,0.02-0.028,0.029l-17.31,17.311
	c-1.502,1.493-3.928,1.493-5.43,0l-8.91-8.911l-16.243,16.289c-3.204,3.212-8.405,3.22-11.617,0.017
	c-0.335-0.334-0.641-0.697-0.914-1.083c-2.27-3.437-1.762-8.004,1.207-10.86l15.872-15.872l-11.603-11.603l-16.197,16.197
	c-3.203,3.212-8.404,3.22-11.617,0.016c-0.335-0.334-0.641-0.697-0.914-1.083c-2.27-3.437-1.762-8.005,1.207-10.86l15.872-15.871
	l-11.603-11.603l-16.196,16.197c-3.203,3.212-8.404,3.219-11.616,0.016c-0.335-0.334-0.641-0.697-0.914-1.083
	c-2.269-3.437-1.762-8.004,1.207-10.86l15.871-15.872l-11.602-11.602l-59.774,59.635l78.617,78.663
	c1.512,1.496,1.525,3.936,0.029,5.448c-0.009,0.009-0.019,0.019-0.029,0.029l-17.311,17.311c-1.496,1.512-3.935,1.525-5.447,0.029
	C224.478,332.872,224.467,332.862,224.459,332.853z M480.495,378.193c-1.496-1.512-3.938-1.525-5.448-0.028
	c-0.01,0.009-0.019,0.019-0.028,0.028l-17.311,17.312c-1.512,1.495-1.525,3.935-0.029,5.447c0.011,0.01,0.021,0.021,0.029,0.028
	l8.911,8.91l-15.871,15.873c-2.97,2.854-3.478,7.422-1.207,10.858c2.613,3.709,7.738,4.595,11.446,1.979
	c0.387-0.271,0.75-0.578,1.084-0.912l16.195-16.197l11.604,11.602l-15.872,15.872c-2.969,2.854-3.475,7.423-1.207,10.86
	c2.614,3.708,7.739,4.594,11.447,1.98c0.387-0.272,0.75-0.58,1.085-0.914l16.195-16.197l11.603,11.604L497.25,472.17
	c-2.97,2.854-3.478,7.422-1.207,10.86c2.614,3.707,7.738,4.594,11.446,1.979c0.387-0.271,0.75-0.579,1.085-0.914l16.196-16.197
	l11.602,11.604l-59.773,59.867l-78.662-78.616c-1.497-1.513-3.937-1.524-5.447-0.028c-0.011,0.01-0.02,0.02-0.029,0.028
	l-17.31,17.312c-1.513,1.494-1.525,3.935-0.028,5.446c0.01,0.011,0.019,0.02,0.028,0.028l90.029,90.08
	c6.287,6.293,16.482,6.299,22.775,0.014c0.004-0.005,0.008-0.009,0.013-0.014l82.652-82.653c6.293-6.286,6.299-16.481,0.014-22.774
	c-0.005-0.004-0.009-0.008-0.014-0.014L480.495,378.193z M563.102,244.583L290.359,517.327c-5.384,5.379-12.041,9.307-19.352,11.417
	l-95.138,27.335c-6.751,1.934-14.019,0.049-18.982-4.92l0,0c-4.969-4.962-6.853-12.23-4.918-18.981l27.334-95.184
	c2.11-7.312,6.038-13.971,11.417-19.354l272.743-272.79c15.427-15.265,40.266-15.265,55.69,0l43.995,43.577
	c15.492,15.389,15.578,40.424,0.188,55.917c-0.062,0.064-0.126,0.127-0.188,0.19L563.102,244.583z M492.933,174.97
	c-5.127-3.251-11.832-2.457-16.058,1.903L213.042,440.846c-2.048,2.07-3.297,4.801-3.527,7.703l-12.716,44.32l18.563,18.562
	l47.012-13.505c1.967-0.629,3.751-1.729,5.197-3.203l6.916-6.914l-0.278-0.278c-10.703-6.424-20.518-14.227-29.191-23.204
	c-2.507-2.507-4.873-5.06-7.147-7.565c-1.461-1.566-1.461-4.001,0-5.568l257.011-256.87c4.864-4.886,4.848-12.791-0.04-17.655
	c-0.583-0.582-1.223-1.103-1.909-1.559V174.97L492.933,174.97z"/>
</svg>
