<?xml version="1.0" encoding="utf-8"?>
<!-- Generator: Adobe Illustrator 16.0.0, SVG Export Plug-In . SVG Version: 6.00 Build 0)  -->
<!DOCTYPE svg PUBLIC "-//W3C//DTD SVG 1.1//EN" "http://www.w3.org/Graphics/SVG/1.1/DTD/svg11.dtd">
<svg version="1.1" id="Layer_1" xmlns="http://www.w3.org/2000/svg" xmlns:xlink="http://www.w3.org/1999/xlink" x="0px" y="0px"
	 width="711px" height="711px" viewBox="-78.918 -72.918 711 711" enable-background="new -78.918 -72.918 711 711"
	 xml:space="preserve">
<title>Artboard 9</title>
<circle  cx="276.582" cy="282.582" r="355.5"/>
<path fill="#FCFCFC" d="M145.541,259.935l-90.08-90.033c-6.292-6.286-6.297-16.482-0.012-22.775
	c0.004-0.004,0.008-0.008,0.012-0.012l82.654-82.654c6.285-6.292,16.482-6.298,22.773-0.012c0.004,0.004,0.008,0.008,0.013,0.012
	l90.032,90.033c1.514,1.496,1.526,3.935,0.028,5.447c-0.009,0.01-0.018,0.02-0.028,0.029l-17.31,17.311
	c-1.502,1.493-3.928,1.493-5.43,0l-8.91-8.911l-16.243,16.289c-3.204,3.212-8.405,3.22-11.617,0.017
	c-0.335-0.334-0.641-0.697-0.914-1.083c-2.27-3.437-1.762-8.004,1.207-10.86l15.872-15.872l-11.603-11.603l-16.197,16.197
	c-3.203,3.212-8.404,3.22-11.617,0.016c-0.335-0.334-0.641-0.697-0.914-1.083c-2.27-3.437-1.762-8.005,1.207-10.86l15.872-15.871
	l-11.603-11.603l-16.196,16.197c-3.203,3.212-8.404,3.219-11.616,0.016c-0.335-0.334-0.641-0.697-0.914-1.083
	c-2.269-3.437-1.762-8.004,1.207-10.86l15.871-15.872l-11.602-11.602l-59.774,59.635l78.617,78.663
	c1.512,1.496,1.525,3.936,0.029,5.448c-0.009,0.009-0.019,0.019-0.029,0.029l-17.311,17.311c-1.496,1.512-3.935,1.525-5.447,0.029
	C145.56,259.954,145.549,259.944,145.541,259.935z M401.577,305.275c-1.496-1.512-3.937-1.525-5.448-0.028
	c-0.01,0.009-0.019,0.019-0.028,0.028l-17.311,17.312c-1.512,1.495-1.525,3.935-0.029,5.447c0.011,0.01,0.02,0.02,0.029,0.029
	l8.911,8.91l-15.871,15.872c-2.97,2.854-3.477,7.422-1.207,10.859c2.613,3.709,7.738,4.595,11.446,1.98
	c0.387-0.271,0.75-0.578,1.084-0.913l16.196-16.197l11.603,11.602l-15.872,15.872c-2.969,2.854-3.475,7.423-1.207,10.86
	c2.614,3.708,7.739,4.594,11.447,1.98c0.387-0.272,0.75-0.579,1.085-0.914l16.196-16.196l11.602,11.603l-15.871,15.871
	c-2.97,2.854-3.477,7.422-1.207,10.86c2.614,3.707,7.738,4.594,11.446,1.98c0.387-0.272,0.75-0.579,1.085-0.914l16.197-16.197
	l11.601,11.603l-59.773,59.867l-78.662-78.616c-1.497-1.513-3.937-1.525-5.448-0.029c-0.01,0.011-0.019,0.02-0.029,0.029
	l-17.31,17.311c-1.512,1.495-1.525,3.935-0.028,5.447c0.01,0.01,0.019,0.019,0.028,0.028l90.03,90.08
	c6.287,6.293,16.482,6.299,22.775,0.014c0.004-0.005,0.008-0.009,0.013-0.014l82.652-82.653c6.293-6.286,6.299-16.482,0.014-22.774
	c-0.005-0.004-0.009-0.008-0.014-0.014L401.577,305.275z M484.184,171.665L211.441,444.409c-5.384,5.379-12.041,9.307-19.352,11.417
	l-95.138,27.335c-6.751,1.934-14.019,0.049-18.982-4.92l0,0c-4.969-4.962-6.853-12.23-4.918-18.981l27.334-95.184
	c2.11-7.312,6.038-13.97,11.417-19.353l272.743-272.79c15.427-15.265,40.266-15.265,55.69,0l43.995,43.577
	c15.493,15.389,15.579,40.424,0.189,55.917c-0.062,0.064-0.126,0.127-0.189,0.19L484.184,171.665z M414.015,102.052
	c-5.127-3.251-11.832-2.457-16.058,1.903L134.124,367.927c-2.048,2.071-3.297,4.801-3.527,7.704l-12.716,44.32l18.563,18.563
	l47.012-13.505c1.967-0.629,3.751-1.729,5.197-3.203l6.916-6.914l-0.278-0.279c-10.703-6.424-20.518-14.226-29.191-23.204
	c-2.507-2.506-4.873-5.059-7.147-7.565c-1.461-1.567-1.461-4.001,0-5.568l257.011-256.871c4.864-4.886,4.848-12.791-0.04-17.655
	c-0.583-0.582-1.223-1.103-1.909-1.559V102.052z"/>
</svg>
