<?xml version="1.0" encoding="utf-8"?>
<!-- Generator: Adobe Illustrator 16.0.0, SVG Export Plug-In . SVG Version: 6.00 Build 0)  -->
<!DOCTYPE svg PUBLIC "-//W3C//DTD SVG 1.1//EN" "http://www.w3.org/Graphics/SVG/1.1/DTD/svg11.dtd">
<svg version="1.1" id="Layer_1" xmlns="http://www.w3.org/2000/svg" xmlns:xlink="http://www.w3.org/1999/xlink" x="0px" y="0px"
	 width="310px" height="310px" viewBox="-50.5 -47 310 310" enable-background="new -50.5 -47 310 310" xml:space="preserve">
<title>$</title>
<desc>Created with Sketch.</desc>
<circle cx="104.5" cy="108" r="155"/>
<g>
	<g transform="translate(-219.000000, -196.000000)">
		<g transform="translate(212.000000, 192.000000)">
			<path fill="#F7F9F8" d="M106.85,220h20.377v-22.396c38.207-3.235,55.273-25.631,55.273-51.014
				c0-33.346-28.783-43.051-55.273-49.77V53.77c12.481,2.489,24.708,8.212,34.387,17.668l16.812-21.649
				c-13.245-12.442-30.566-20.405-51.198-22.645V4H106.85v22.894C73.99,29.631,53.104,49.788,53.104,75.17
				c0,32.35,27.51,41.558,53.746,48.028v48.276c-18.34-2.737-33.113-12.193-42.539-22.396L47.5,171.724
				c13.5,13.687,33.113,23.89,59.35,25.88V220z M154.227,147.977c0,9.076-7.794,18.619-27,20.947v-40.5
				C142.536,132.381,154.227,137.502,154.227,147.977z M83.67,73.678c0-11.35,10.385-19.347,27-21.153v40.5
				C94.945,88.898,83.67,83.739,83.67,73.678z"/>
		</g>
	</g>
</g>
</svg>
