<?xml version="1.0" encoding="utf-8"?>
<!-- Generator: Adobe Illustrator 16.0.0, SVG Export Plug-In . SVG Version: 6.00 Build 0)  -->
<!DOCTYPE svg PUBLIC "-//W3C//DTD SVG 1.1//EN" "http://www.w3.org/Graphics/SVG/1.1/DTD/svg11.dtd">
<svg version="1.1" id="Layer_1" xmlns="http://www.w3.org/2000/svg" xmlns:xlink="http://www.w3.org/1999/xlink" x="0px" y="0px"
	 width="310px" height="310px" viewBox="0 0 310 310" enable-background="new 0 0 310 310" xml:space="preserve">
<title>$</title>
<desc>Created with Sketch.</desc>
<g>
	<g transform="translate(-219.000000, -196.000000)">
		<g transform="translate(212.000000, 192.000000)">
			<path d="M157.35,267h20.376v-22.396C215.934,241.369,233,218.973,233,193.59c0-33.346-28.783-43.051-55.273-49.77
				v-43.05c12.481,2.489,24.709,8.212,34.388,17.668l16.812-21.649c-13.244-12.442-30.566-20.405-51.197-22.645V51H157.35v22.894
				c-32.86,2.737-53.746,22.894-53.746,48.276c0,32.35,27.51,41.559,53.746,48.028v48.276c-18.34-2.738-33.113-12.193-42.539-22.396
				L98,218.725c13.5,13.687,33.113,23.89,59.35,25.879V267z M204.727,194.977c0,9.076-7.793,18.619-27,20.947v-40.5
				C193.036,179.381,204.727,184.502,204.727,194.977z M134.17,120.678c0-11.35,10.385-19.347,27-21.153v40.5
				C145.445,135.898,134.17,130.739,134.17,120.678z"/>
		</g>
	</g>
</g>
</svg>
