<?xml version="1.0" encoding="utf-8"?>
<!-- Generator: Adobe Illustrator 16.0.0, SVG Export Plug-In . SVG Version: 6.00 Build 0)  -->
<!DOCTYPE svg PUBLIC "-//W3C//DTD SVG 1.1//EN" "http://www.w3.org/Graphics/SVG/1.1/DTD/svg11.dtd">
<svg version="1.1" id="Layer_1" xmlns="http://www.w3.org/2000/svg" xmlns:xlink="http://www.w3.org/1999/xlink" x="0px" y="0px"
	 width="754px" height="754px" viewBox="0 0 754 754" enable-background="new 0 0 754 754" xml:space="preserve">
<g>
	<path d="M377.103,277.843c-68.795,0-120.621,25.296-120.621,58.922v134.197c0,31.774,46.48,56.042,109.722,58.614
		v35.168c-9.255,3.29-16.555,10.592-19.949,19.949h-78.769v21.902h78.769c4.524,12.751,16.555,21.903,30.849,21.903
		c14.294,0,26.325-9.152,30.85-21.903h78.77v-21.902h-78.77c-3.29-9.256-10.592-16.557-19.949-19.949v-35.168
		c63.242-2.571,109.722-26.84,109.722-58.614V336.663l0,0C497.725,303.139,445.897,277.843,377.103,277.843z M377.103,606.494
		c-6.067,0-11.003-4.936-11.003-11.003s4.936-11.004,11.003-11.004s11.002,4.937,11.002,11.004
		C388.105,601.661,383.17,606.494,377.103,606.494z M475.821,470.857c0,15.426-37.533,36.918-98.719,36.918
		c-61.185,0-98.719-21.492-98.719-36.918v-32.496c21.493,14.912,56.969,24.271,98.719,24.271c41.75,0,77.227-9.356,98.719-24.271
		V470.857z M475.821,403.812c0,15.424-37.533,36.918-98.719,36.918c-61.185,0-98.719-21.494-98.719-36.918v-32.494
		c21.493,14.91,56.969,24.267,98.719,24.267c41.75,0,77.227-9.355,98.719-24.267V403.812z M377.103,373.682
		c-61.185,0-98.719-21.492-98.719-36.917c0-15.425,37.534-36.916,98.719-36.916c61.186,0,98.719,21.491,98.719,36.916
		C475.821,352.087,438.288,373.682,377.103,373.682z"/>
	<path d="M564.462,272.188c3.292-12.751,7.714-33.112,6.891-47.201c-3.908-67.252-60.671-122.37-126.483-122.987
		h-1.028c-53.165,0-100.57,34.346-119.183,84.117c-19.538-16.248-44.629-24.269-70.233-21.595
		c-36.506,3.599-68.177,29.41-80.93,65.606c-5.656,16.145-7.096,32.701-4.215,49.359c-33.524,16.557-55.53,51.623-55.53,90.288
		c0,55.735,41.544,96.148,98.719,96.148h21.903v-129.26c0-47.61,58.614-80.826,142.628-80.826
		c83.911,0,142.628,33.216,142.628,80.826V465.82h6.89c4.937,0.719,9.976,1.232,15.015,1.232c54.398,0,98.719-44.318,98.719-98.719
		C640.354,321.855,608.577,282.471,564.462,272.188z"/>
</g>
</svg>
