<?xml version="1.0" encoding="utf-8"?>
<!-- Generator: Adobe Illustrator 16.0.0, SVG Export Plug-In . SVG Version: 6.00 Build 0)  -->
<!DOCTYPE svg PUBLIC "-//W3C//DTD SVG 1.1//EN" "http://www.w3.org/Graphics/SVG/1.1/DTD/svg11.dtd">
<svg version="1.1" id="Layer_1" xmlns="http://www.w3.org/2000/svg" xmlns:xlink="http://www.w3.org/1999/xlink" x="0px" y="0px"
	 width="754px" height="754px" viewBox="-89 -95 754 754" enable-background="new -89 -95 754 754" xml:space="preserve">
<circle    cx="288" cy="282" r="376.5"/>
<g>
	<path fill="#FFFFFF" d="M288.103,182.843c-68.795,0-120.621,25.296-120.621,58.922v134.197c0,31.774,46.48,56.042,109.722,58.614
		v35.168c-9.255,3.29-16.555,10.592-19.949,19.949h-78.769v21.903h78.769c4.524,12.751,16.555,21.903,30.849,21.903
		s26.325-9.152,30.85-21.903h78.77v-21.903h-78.77c-3.29-9.255-10.592-16.556-19.949-19.949v-35.168
		c63.242-2.571,109.722-26.84,109.722-58.614V241.663l0,0C408.725,208.139,356.897,182.843,288.103,182.843z M288.103,511.494
		c-6.067,0-11.003-4.935-11.003-11.003c0-6.067,4.936-11.004,11.003-11.004s11.003,4.937,11.003,11.004
		C299.105,506.661,294.17,511.494,288.103,511.494z M386.821,375.858c0,15.425-37.533,36.917-98.719,36.917
		c-61.185,0-98.719-21.492-98.719-36.917v-32.496c21.493,14.911,56.969,24.27,98.719,24.27c41.75,0,77.227-9.357,98.719-24.27
		V375.858z M386.821,308.812c0,15.425-37.533,36.918-98.719,36.918c-61.185,0-98.719-21.493-98.719-36.918v-32.493
		c21.493,14.91,56.969,24.267,98.719,24.267c41.75,0,77.227-9.356,98.719-24.267V308.812z M288.103,278.682
		c-61.185,0-98.719-21.492-98.719-36.917s37.534-36.916,98.719-36.916c61.186,0,98.719,21.491,98.719,36.916
		C386.821,257.087,349.288,278.682,288.103,278.682z"/>
	<path fill="#FFFFFF" d="M475.462,177.188c3.292-12.751,7.714-33.112,6.891-47.201C478.444,62.735,421.682,7.617,355.869,7h-1.028
		c-53.165,0-100.57,34.346-119.183,84.117c-19.538-16.248-44.629-24.269-70.233-21.595c-36.506,3.599-68.177,29.41-80.93,65.606
		c-5.656,16.145-7.096,32.701-4.215,49.359C46.756,201.044,24.75,236.11,24.75,274.775c0,55.735,41.544,96.148,98.719,96.148h21.903
		v-129.26c0-47.61,58.614-80.826,142.628-80.826c83.911,0,142.628,33.216,142.628,80.826V370.82h6.89
		c4.936,0.719,9.975,1.233,15.014,1.233c54.399,0,98.719-44.319,98.719-98.719C551.353,226.855,519.577,187.471,475.462,177.188z"/>
</g>
</svg>
