<?xml version="1.0" encoding="utf-8"?>
<!-- Generator: Adobe Illustrator 16.0.0, SVG Export Plug-In . SVG Version: 6.00 Build 0)  -->
<!DOCTYPE svg PUBLIC "-//W3C//DTD SVG 1.1//EN" "http://www.w3.org/Graphics/SVG/1.1/DTD/svg11.dtd">
<svg version="1.1" id="Layer_1" xmlns="http://www.w3.org/2000/svg" xmlns:xlink="http://www.w3.org/1999/xlink" x="0px" y="0px"
	 width="341px" height="341px" viewBox="0 0 341 341" enable-background="new 0 0 341 341" xml:space="preserve">
<circle cx="167.501" cy="170.5" r="170.5"/>
<g>
	<path fill="#F9F9F9" d="M441.725,275.109l45.853-52.674c3.409-3.789,3.032-9.475-0.759-12.886
		c-3.789-3.409-9.474-3.03-12.885,0.759l-51.156,58.736c-3.032,3.411-3.032,8.716,0,12.127l51.156,58.736
		c1.896,1.895,4.17,3.031,6.821,3.031c2.272,0,4.547-0.758,6.062-2.273c1.896-1.516,3.033-3.79,3.033-6.441
		c0-2.273-0.759-4.927-2.273-6.82L441.725,275.109z"/>
	<path fill="#F9F9F9" d="M583.07,210.311c-1.516-1.896-3.791-3.033-6.442-3.033c-2.272,0-4.926,0.76-6.819,2.273
		c-3.789,3.411-4.168,9.096-0.759,12.885l46.231,52.674l-45.854,52.675c-1.516,1.896-2.273,4.168-2.273,6.821
		c0,2.272,1.138,4.547,3.031,6.441c1.517,1.516,3.789,2.273,6.062,2.273c2.652,0,5.307-1.137,6.82-3.031l51.158-58.737
		c3.031-3.409,3.031-8.716,0-12.126L583.07,210.311z"/>
	<path fill="#F9F9F9" d="M544.797,192.878c-4.927-1.137-9.854,2.272-10.988,7.2l-29.181,146.273
		c-1.138,4.926,2.272,9.852,7.2,10.988c0.759,0,1.137,0,1.896,0c4.547,0,8.336-3.031,9.094-7.579l29.18-146.272
		C553.134,198.562,550.104,194.016,544.797,192.878z"/>
</g>
<g>
	<g>
		<path fill="#FCFCFC" d="M171,138.4c-17.896,0-32.4,14.511-32.4,32.4c0,17.896,14.504,32.4,32.4,32.4
			c17.891,0,32.4-14.505,32.4-32.4C203.4,152.911,188.891,138.4,171,138.4z M257.4,106h-25.92c-3.564,0-7.404-2.765-8.53-6.147
			l-6.7-20.107c-1.13-3.38-4.966-6.145-8.529-6.145H134.28c-3.564,0-7.404,2.765-8.53,6.147l-6.7,20.107
			c-1.13,3.38-4.966,6.145-8.53,6.145H84.6c-11.88,0-21.6,9.72-21.6,21.6v97.2c0,11.88,9.72,21.601,21.6,21.601h172.8
			c11.879,0,21.6-9.721,21.6-21.601v-97.2C279,115.72,269.279,106,257.4,106z M171,224.8c-29.823,0-54-24.177-54-54
			c0-29.821,24.177-54,54-54c29.818,0,54,24.179,54,54C225,200.623,200.818,224.8,171,224.8z M249.84,142.705
			c-4.173,0-7.561-3.383-7.561-7.56c0-4.173,3.388-7.56,7.561-7.56c4.178,0,7.561,3.387,7.561,7.56
			C257.4,139.322,254.016,142.705,249.84,142.705z"/>
	</g>
</g>
</svg>
