<?xml version="1.0" encoding="utf-8"?>
<!-- Generator: Adobe Illustrator 16.0.0, SVG Export Plug-In . SVG Version: 6.00 Build 0)  -->
<!DOCTYPE svg PUBLIC "-//W3C//DTD SVG 1.1//EN" "http://www.w3.org/Graphics/SVG/1.1/DTD/svg11.dtd">
<svg version="1.1" id="Layer_1" xmlns="http://www.w3.org/2000/svg" xmlns:xlink="http://www.w3.org/1999/xlink" x="0px" y="0px"
	 width="216px" height="216px" viewBox="0 0 216 216" enable-background="new 0 0 216 216" xml:space="preserve">
<g>
	<path fill="none" d="M109.242,87.177c0-0.686-0.557-1.244-1.242-1.244c-0.686,0-1.238,0.562-1.238,1.247
		c0,0.677,0.552,1.235,1.236,1.235C108.686,88.417,109.242,87.86,109.242,87.177z"/>
	<circle fill="none" cx="108.003" cy="98.384" r="1.241"/>
	<path fill="none" d="M106.762,109.576c0,0.685,0.552,1.238,1.236,1.238c0.688,0,1.244-0.554,1.244-1.241
		c0-0.681-0.557-1.239-1.244-1.239C107.32,108.334,106.762,108.896,106.762,109.576z"/>
	<circle fill="none" cx="108.003" cy="98.384" r="1.241"/>
	<path fill="none" d="M134.372,127.146v0.005c-0.079-0.694-0.655-1.232-1.364-1.229c-0.713-0.003-1.293,0.535-1.363,1.229
		l-0.015-0.005c-0.25,1.201-0.483,2.409-0.708,3.615c-2.169-2.962-4.686-5.629-7.463-7.971c4.035-11.844,6.213-24.441,6.213-37.506
		c0-22.994-6.743-44.544-18.514-63.113c-0.607-1.125-1.785-1.901-3.158-1.901c-1.37,0.004-2.56,0.775-3.156,1.907
		C93.076,40.743,86.328,62.294,86.328,85.284c0,13.064,2.176,25.663,6.218,37.509c-2.778,2.34-5.293,5.008-7.471,7.965
		c-0.217-1.202-0.458-2.41-0.707-3.611v0.005c-0.086-0.694-0.66-1.232-1.372-1.229c-0.711-0.003-1.29,0.535-1.364,1.226h-0.006
		c-2.413,15.113-2.12,30.617,1.152,45.807l0.007-0.004c0.115,0.656,0.675,1.149,1.357,1.149c0.713-0.004,1.296-0.539,1.369-1.235
		h0.007c1.507-13.716,9.201-25.577,20.232-32.71c0.659-0.391,1.427-0.615,2.245-0.615c0.826,0.006,1.594,0.229,2.253,0.619
		c11.036,7.13,18.724,18.987,20.229,32.709l0.006-0.005c0.072,0.693,0.658,1.237,1.372,1.237c0.679,0,1.251-0.489,1.354-1.146h0.01
		C136.493,157.762,136.787,142.263,134.372,127.146z M108.679,95.319c1.409,0.309,2.463,1.562,2.463,3.065
		c0,1.5-1.057,2.759-2.463,3.065c-0.387,0.065-0.678,0.404-0.681,0.803v3.469c0.002,0.402,0.294,0.739,0.681,0.805
		c1.409,0.304,2.463,1.561,2.463,3.06c0,1.504-1.057,2.763-2.463,3.069c-0.387,0.068-0.681,0.401-0.674,0.804L108,116.211
		c-0.007,1.406-1.146,2.539-2.552,2.539h-8.206c-1.131,0-2.095-0.742-2.428-1.771c0,0-4.561-14.56-4.561-31.924
		c0-20.658,5.521-40.02,15.158-56.701c0.493-1.014,1.465-1.71,2.586-1.707v26.805c0,1.17-0.846,2.139-1.953,2.342
		c-5.681,0.932-10.016,5.868-10.016,11.814c0,5.95,4.335,10.887,10.016,11.818c1.111,0.201,1.953,1.176,1.953,2.342l0.003,1.539
		c-0.003,0.407,0.294,0.735,0.678,0.803c1.409,0.311,2.463,1.557,2.463,3.066c0,1.503-1.057,2.756-2.463,3.066
		c-0.387,0.069-0.681,0.396-0.678,0.804v3.468C108,94.917,108.292,95.252,108.679,95.319z M108.927,70.47
		c-1.278,0.6-2.61,0.814-3.85,0.725l0.004,0.007c-0.391-0.003-0.79,0.157-1.063,0.493c-0.438,0.535-0.369,1.286,0.145,1.696
		c1.167,1.021,2.563,1.671,4.008,1.871l0,0c0.102,0.006,0.192,0.025,0.272,0.086c0.191,0.144,0.216,0.414,0.062,0.607
		c-0.097,0.121-0.234,0.174-0.378,0.172l-0.007,0.014c-3.183,0.407-6.519-1.558-8.019-5.011c-1.15-2.683-0.936-5.563,0.317-7.75
		c0.748-1.516,2.079-2.844,3.85-3.655c3.549-1.644,7.453-0.549,8.744,2.411C114.301,65.112,112.471,68.837,108.927,70.47z"/>
	<circle fill="none" cx="108.003" cy="98.384" r="1.241"/>
	<path fill="none" d="M116,154.533c-0.786,0.004-1.441,0.54-1.693,1.296c-1.085,3.271-2.893,6.071-5.156,8.08l0,0
		c-0.314,0.275-0.715,0.444-1.154,0.443c-0.438,0-0.842-0.17-1.148-0.455l0,0c-2.272-2.006-4.063-4.801-5.146-8.069
		c-0.256-0.759-0.918-1.295-1.696-1.292c-0.787-0.009-1.444,0.535-1.701,1.279c-1.258,3.902-1.942,7.959-1.946,12.136
		c0.004,9.907,3.76,19.173,10.304,27.126l0,0c0.335,0.396,0.808,0.646,1.336,0.651c0.539-0.005,1.01-0.259,1.336-0.657l0,0
		c6.55-7.945,10.309-17.215,10.309-27.119c0-4.178-0.688-8.234-1.949-12.136C117.435,155.07,116.784,154.535,116,154.533z"/>
	<circle fill="none" cx="108.003" cy="98.384" r="1.241"/>
</g>
</svg>
