<?xml version="1.0" encoding="utf-8"?>
<!-- Generator: Adobe Illustrator 16.0.0, SVG Export Plug-In . SVG Version: 6.00 Build 0)  -->
<!DOCTYPE svg PUBLIC "-//W3C//DTD SVG 1.1//EN" "http://www.w3.org/Graphics/SVG/1.1/DTD/svg11.dtd">
<svg version="1.1" id="Layer_1" xmlns="http://www.w3.org/2000/svg" xmlns:xlink="http://www.w3.org/1999/xlink" x="0px" y="0px"
	 width="309px" height="309px" viewBox="-41.5 -46.5 309 309" enable-background="new -41.5 -46.5 309 309" xml:space="preserve">
<circle fill="#9D4949" cx="113" cy="108.411" r="154.5"/>
<g>
	<path fill="#FCFBFA" d="M114.778,78.623c0-0.981-0.798-1.779-1.777-1.779c-0.981,0-1.771,0.803-1.771,1.784
		c0,0.969,0.79,1.767,1.768,1.767C113.98,80.396,114.778,79.6,114.778,78.623z"/>
	<circle fill="#FCFBFA" cx="113.004" cy="94.655" r="1.775"/>
	<path fill="#FCFBFA" d="M111.229,110.666c0,0.979,0.79,1.772,1.768,1.772c0.983,0,1.781-0.793,1.781-1.776
		c0-0.973-0.798-1.773-1.781-1.773C112.027,108.889,111.229,109.693,111.229,110.666z"/>
	<circle fill="#FCFBFA" cx="113.004" cy="94.655" r="1.775"/>
	<path fill="#FCFBFA" d="M150.727,135.802v0.006c-0.113-0.994-0.938-1.763-1.951-1.758c-1.021-0.005-1.85,0.766-1.951,1.758
		l-0.021-0.006c-0.358,1.717-0.692,3.446-1.012,5.171c-3.104-4.237-6.704-8.052-10.677-11.402
		c5.772-16.943,8.888-34.965,8.888-53.655c0-32.894-9.647-63.722-26.486-90.286c-0.868-1.609-2.552-2.719-4.516-2.719
		c-1.96,0.005-3.662,1.109-4.515,2.728C91.651,12.196,81.997,43.026,81.997,75.915c0,18.689,3.113,36.712,8.896,53.659
		c-3.974,3.347-7.573,7.164-10.688,11.394c-0.311-1.72-0.655-3.449-1.011-5.166v0.006c-0.123-0.994-0.944-1.763-1.963-1.758
		c-1.017-0.005-1.845,0.766-1.951,1.753h-0.009c-3.452,21.62-3.032,43.799,1.649,65.528l0.01-0.005
		c0.164,0.938,0.966,1.644,1.941,1.644c1.021-0.005,1.854-0.771,1.958-1.767h0.01c2.156-19.621,13.163-36.589,28.943-46.794
		c0.943-0.559,2.042-0.88,3.212-0.88c1.181,0.009,2.281,0.329,3.223,0.887c15.789,10.199,26.785,27.162,28.939,46.791l0.009-0.006
		c0.104,0.992,0.941,1.769,1.963,1.769c0.97,0,1.79-0.7,1.938-1.639h0.014C153.761,179.598,154.181,157.426,150.727,135.802z
		 M113.971,90.27c2.015,0.442,3.523,2.234,3.523,4.385c0,2.146-1.511,3.946-3.523,4.385c-0.553,0.093-0.97,0.578-0.974,1.149v4.962
		c0.004,0.575,0.421,1.057,0.974,1.152c2.015,0.435,3.523,2.233,3.523,4.377c0,2.151-1.511,3.952-3.523,4.391
		c-0.553,0.098-0.974,0.574-0.965,1.149l-0.005,3.938c-0.01,2.012-1.639,3.632-3.651,3.632H97.612c-1.618,0-2.997-1.062-3.474-2.534
		c0,0-6.524-20.829-6.524-45.67c0-29.553,7.897-57.251,21.684-81.114c0.705-1.451,2.096-2.447,3.7-2.442v38.346
		c0,1.674-1.21,3.06-2.794,3.351c-8.127,1.333-14.329,8.394-14.329,16.9c0,8.512,6.202,15.575,14.329,16.907
		c1.589,0.287,2.794,1.682,2.794,3.351l0.005,2.201c-0.005,0.582,0.42,1.052,0.969,1.149c2.016,0.445,3.524,2.227,3.524,4.386
		c0,2.151-1.512,3.943-3.524,4.387c-0.553,0.098-0.974,0.567-0.969,1.15v4.962C113.001,89.695,113.418,90.175,113.971,90.27z
		 M114.326,54.723c-1.829,0.858-3.734,1.165-5.507,1.037l0.006,0.01c-0.559-0.005-1.13,0.224-1.521,0.705
		c-0.626,0.766-0.527,1.84,0.208,2.427c1.67,1.461,3.667,2.39,5.733,2.677l0,0c0.146,0.009,0.275,0.035,0.39,0.123
		c0.273,0.206,0.309,0.592,0.089,0.869c-0.139,0.173-0.335,0.25-0.541,0.246l-0.01,0.02c-4.553,0.582-9.325-2.229-11.471-7.169
		c-1.645-3.838-1.338-7.959,0.454-11.087c1.07-2.168,2.974-4.069,5.507-5.228c5.078-2.352,10.663-0.786,12.51,3.449
		C122.013,47.058,119.395,52.386,114.326,54.723z"/>
	<circle fill="#FCFBFA" cx="113.004" cy="94.655" r="1.775"/>
	<path fill="#FCFBFA" d="M124.444,174.98c-1.124,0.005-2.062,0.772-2.422,1.853c-1.552,4.679-4.137,8.686-7.377,11.559l0,0
		c-0.449,0.395-1.022,0.636-1.65,0.634c-0.626,0-1.205-0.242-1.643-0.651l0,0c-3.25-2.869-5.813-6.867-7.362-11.543
		c-0.367-1.085-1.313-1.853-2.427-1.848c-1.125-0.012-2.066,0.766-2.433,1.829c-1.8,5.583-2.778,11.387-2.784,17.362
		c0.006,14.172,5.379,27.427,14.741,38.804l0,0c0.48,0.567,1.155,0.926,1.911,0.933c0.771-0.007,1.445-0.371,1.912-0.94l0,0
		c9.37-11.367,14.747-24.627,14.747-38.796c0-5.976-0.984-11.779-2.789-17.361C126.497,175.748,125.566,174.983,124.444,174.98z"/>
	<circle fill="#FCFBFA" cx="113.004" cy="94.655" r="1.775"/>
</g>
</svg>
